<?xml version="1.0" standalone="no"?>
<!DOCTYPE svg PUBLIC "-//W3C//DTD SVG 20010904//EN"
 "http://www.w3.org/TR/2001/REC-SVG-20010904/DTD/svg10.dtd">
<svg version="1.0" xmlns="http://www.w3.org/2000/svg"
 width="300.000000pt" height="300.000000pt" viewBox="0 0 300.000000 300.000000"
 preserveAspectRatio="xMidYMid meet">
<metadata>
Created by potrace 1.11, written by Peter Selinger 2001-2013
</metadata>
<g transform="translate(0.000000,300.000000) scale(0.100000,-0.100000)"
fill="#000000" stroke="none">
<path d="M251 2490 c-102 -37 -197 -144 -219 -246 -5 -25 -10 -349 -9 -746 0
-741 0 -754 45 -827 49 -80 112 -131 197 -160 58 -19 84 -20 673 -20 680 0
724 3 880 55 239 80 440 249 564 474 40 72 94 217 103 277 3 21 8 50 11 63 8
38 7 218 -1 280 -34 256 -189 515 -404 673 -35 26 -59 47 -55 48 57 4 610 -1
635 -6 38 -8 85 -37 112 -69 49 -58 48 -43 48 -787 0 -781 3 -748 -73 -813
-36 -31 -60 -40 -164 -61 -25 -6 -49 -55 -39 -84 12 -39 34 -51 93 -51 151 1
294 127 321 284 7 40 10 299 8 766 l-2 705 -30 58 c-38 76 -124 156 -196 182
-52 19 -79 20 -699 20 -355 0 -670 -3 -700 -7 -152 -20 -335 -97 -459 -193
-180 -139 -305 -323 -367 -540 -32 -112 -42 -336 -20 -450 50 -251 205 -495
404 -632 28 -20 50 -39 47 -41 -2 -3 -138 -5 -301 -5 -331 1 -363 5 -420 61
-68 66 -65 31 -66 803 0 668 1 699 20 741 30 69 90 112 171 124 20 3 46 10 58
16 38 19 41 87 4 115 -24 18 -109 15 -170 -7z m1333 -134 c274 -24 536 -199
670 -449 33 -61 72 -162 82 -212 38 -180 22 -368 -46 -526 -85 -199 -237 -358
-435 -450 -74 -35 -220 -75 -280 -78 -289 -11 -506 69 -689 254 -294 297 -334
745 -97 1094 105 153 276 279 456 334 77 23 95 27 175 33 41 4 77 8 79 10 2 2
7 2 10 0 3 -2 37 -7 75 -10z"/>
<path d="M1478 2186 c-1 -2 -25 -6 -53 -9 -174 -18 -345 -111 -459 -247 -37
-46 -112 -184 -122 -230 -47 -196 -36 -329 40 -500 82 -187 307 -349 521 -376
349 -45 677 182 756 524 28 122 15 285 -33 406 -90 230 -316 401 -558 422 -36
3 -70 7 -77 9 -6 2 -13 2 -15 1z m122 -161 c83 -13 203 -79 274 -150 106 -107
159 -237 155 -389 -5 -246 -185 -460 -429 -510 -318 -64 -622 174 -636 499 -4
107 8 165 56 260 109 220 329 331 580 290z"/>
</g>
</svg>
